<svg width="64" height="64" viewBox="0 0 64 64" fill="none" xmlns="http://www.w3.org/2000/svg">
    <g clip-path="url(#clip0_468_3325)">
        <path d="M35.2 27.7334H35.2107" stroke="#9CA3AF" stroke-opacity="0.8" stroke-width="1.5" stroke-linecap="round"
            stroke-linejoin="round" />
        <path
            d="M38.1333 23.4667H25.8666C24.5411 23.4667 23.4666 24.5412 23.4666 25.8667V38.1333C23.4666 39.4588 24.5411 40.5333 25.8666 40.5333H38.1333C39.4587 40.5333 40.5333 39.4588 40.5333 38.1333V25.8667C40.5333 24.5412 39.4587 23.4667 38.1333 23.4667Z"
            stroke="#9CA3AF" stroke-opacity="0.8" stroke-width="1.5" stroke-linecap="round" stroke-linejoin="round" />
        <path d="M23.4666 35.2001L27.7333 30.9334C28.7234 29.9807 29.9432 29.9807 30.9333 30.9334L36.2666 36.2667"
            stroke="#9CA3AF" stroke-opacity="0.8" stroke-width="1.5" stroke-linecap="round" stroke-linejoin="round" />
        <path d="M34.1334 34.1334L35.2 33.0667C36.1901 32.114 37.4099 32.114 38.4 33.0667L40.5334 35.2" stroke="#9CA3AF"
            stroke-opacity="0.8" stroke-width="1.5" stroke-linecap="round" stroke-linejoin="round" />
        <path
            d="M63.4 32C63.4 14.6582 49.3417 0.599976 32 0.599976C14.6582 0.599976 0.599976 14.6582 0.599976 32C0.599976 49.3417 14.6582 63.4 32 63.4C49.3417 63.4 63.4 49.3417 63.4 32Z"
            stroke="#9CA3AF" stroke-opacity="0.5" stroke-width="1.5" stroke-dasharray="4 4" />
    </g>
    <defs>
        <clipPath id="clip0_468_3325">
            <rect width="64" height="64" fill="white" />
        </clipPath>
    </defs>
</svg>