<svg xmlns="http://www.w3.org/2000/svg" version="1.1" width="192" height="192" viewBox="0 0 192 192">
    <rect x="0" y="0" width="192" height="192" fill="#ffffff" />
    <g transform="scale(4.683)">
        <g transform="translate(0,0)">
            <path fill-rule="evenodd" d="M9 0L9 1L8 1L8 2L9 2L9 3L8 3L8 4L9 4L9 3L11 3L11 6L10 6L10 8L6 8L6 9L5 9L5
                8L0 8L0 12L3 12L3 10L2 10L2 11L1 11L1 9L5 9L5 10L6 10L6 11L7 11L7 12L6 12L6 13L8 13L8 11L9 11L9 12L10
                12L10 11L9 11L9 9L10 9L10 10L11 10L11 9L12 9L12 11L11 11L11 13L12 13L12 14L14 14L14 15L16 15L16 16L17
                16L17 17L16 17L16 18L15 18L15 16L14 16L14 18L15 18L15 19L16 19L16 18L17 18L17 19L18 19L18 20L17 20L17
                21L16 21L16 20L15 20L15 21L16 21L16 22L15 22L15 24L14 24L14 25L12 25L12 23L14 23L14 21L13 21L13 17L10
                17L10 19L9 19L9 18L8 18L8 17L7 17L7 16L8 16L8 15L7 15L7 14L5 14L5 13L2 13L2 14L1 14L1 15L3 15L3 14L5
                14L5 16L4 16L4 17L5 17L5 19L3 19L3 16L0 16L0 17L2 17L2 18L1 18L1 19L0 19L0 20L1 20L1 19L3 19L3 20L2 20L2
                22L1 22L1 21L0 21L0 24L2 24L2 25L3 25L3 26L4 26L4 27L5 27L5 26L6 26L6 27L7 27L7 28L6 28L6 29L7 29L7 30L6
                30L6 31L7 31L7 32L5 32L5 33L8 33L8 35L9 35L9 36L8 36L8 41L13 41L13 40L12 40L12 39L14 39L14 41L16 41L16
                40L17 40L17 41L18 41L18 40L17 40L17 39L19 39L19 38L22 38L22 39L20 39L20 40L22 40L22 41L32 41L32 40L33
                40L33 39L31 39L31 40L29 40L29 38L27 38L27 39L26 39L26 38L25 38L25 39L24 39L24 40L23 40L23 38L24 38L24
                37L23 37L23 36L25 36L25 37L30 37L30 38L31 38L31 35L32 35L32 37L35 37L35 38L34 38L34 39L35 39L35 38L36
                38L36 40L37 40L37 41L39 41L39 40L40 40L40 39L41 39L41 38L40 38L40 37L39 37L39 36L38 36L38 35L37 35L37
                34L38 34L38 31L39 31L39 33L40 33L40 34L39 34L39 35L40 35L40 34L41 34L41 33L40 33L40 31L39 31L39 30L41
                30L41 29L39 29L39 28L40 28L40 27L39 27L39 28L38 28L38 25L36 25L36 26L37 26L37 29L36 29L36 30L35 30L35
                29L33 29L33 20L32 20L32 24L31 24L31 25L32 25L32 27L31 27L31 26L29 26L29 25L30 25L30 24L28 24L28 22L29
                22L29 23L31 23L31 21L30 21L30 20L28 20L28 18L27 18L27 16L28 16L28 17L30 17L30 18L33 18L33 19L34 19L34
                20L36 20L36 18L37 18L37 21L34 21L34 24L38 24L38 22L39 22L39 20L38 20L38 18L37 18L37 17L36 17L36 18L35
                18L35 17L33 17L33 16L34 16L34 15L33 15L33 16L32 16L32 17L30 17L30 16L28 16L28 14L26 14L26 13L27 13L27
                12L25 12L25 13L23 13L23 12L22 12L22 10L21 10L21 11L20 11L20 12L17 12L17 10L20 10L20 9L18 9L18 8L17 8L17
                6L18 6L18 7L19 7L19 5L21 5L21 6L20 6L20 8L23 8L23 10L24 10L24 11L25 11L25 10L26 10L26 11L28 11L28 10L29
                10L29 11L30 11L30 12L29 12L29 13L30 13L30 14L33 14L33 12L32 12L32 11L31 11L31 10L33 10L33 11L34 11L34
                12L35 12L35 13L34 13L34 14L35 14L35 15L37 15L37 16L38 16L38 15L37 15L37 14L38 14L38 13L39 13L39 12L38
                12L38 11L37 11L37 12L38 12L38 13L36 13L36 10L37 10L37 9L38 9L38 8L37 8L37 9L36 9L36 8L35 8L35 9L34 9L34
                8L33 8L33 9L30 9L30 8L32 8L32 7L33 7L33 6L32 6L32 7L31 7L31 5L33 5L33 4L32 4L32 3L33 3L33 0L28 0L28 1L27
                1L27 2L26 2L26 3L25 3L25 4L28 4L28 5L26 5L26 8L23 8L23 6L22 6L22 4L23 4L23 2L19 2L19 1L25 1L25 0L18 0L18
                1L17 1L17 2L16 2L16 1L15 1L15 0L12 0L12 2L13 2L13 1L14 1L14 3L13 3L13 4L12 4L12 3L11 3L11 1L10 1L10 0ZM9
                1L9 2L10 2L10 1ZM28 1L28 2L27 2L27 3L28 3L28 4L29 4L29 3L30 3L30 4L31 4L31 2L32 2L32 1L30 1L30 2L29 2L29
                1ZM17 2L17 3L19 3L19 2ZM28 2L28 3L29 3L29 2ZM14 3L14 4L15 4L15 5L16 5L16 6L15 6L15 7L16 7L16 6L17 6L17
                5L19 5L19 4L15 4L15 3ZM8 5L8 7L9 7L9 5ZM12 5L12 6L11 6L11 7L12 7L12 9L13 9L13 10L14 10L14 11L12 11L12
                13L13 13L13 12L14 12L14 13L15 13L15 14L16 14L16 13L17 13L17 12L16 12L16 13L15 13L15 12L14 12L14 11L15
                11L15 10L16 10L16 9L14 9L14 5ZM28 5L28 6L27 6L27 8L28 8L28 6L29 6L29 8L30 8L30 6L29 6L29 5ZM12 6L12 7L13
                7L13 6ZM21 6L21 7L22 7L22 6ZM24 6L24 7L25 7L25 6ZM10 8L10 9L11 9L11 8ZM39 8L39 10L40 10L40 8ZM6 9L6 10L7
                10L7 11L8 11L8 10L7 10L7 9ZM24 9L24 10L25 10L25 9ZM26 9L26 10L28 10L28 9ZM33 9L33 10L34 10L34 11L35
                11L35 10L34 10L34 9ZM30 12L30 13L32 13L32 12ZM18 13L18 15L17 15L17 16L18 16L18 17L17 17L17 18L18 18L18
                19L19 19L19 20L20 20L20 21L24 21L24 22L23 22L23 23L22 23L22 24L19 24L19 23L20 23L20 22L17 22L17 23L16
                23L16 24L15 24L15 25L14 25L14 26L16 26L16 24L19 24L19 25L17 25L17 26L18 26L18 27L14 27L14 28L13 28L13
                27L12 27L12 26L11 26L11 25L10 25L10 26L11 26L11 28L10 28L10 27L8 27L8 25L9 25L9 24L8 24L8 25L6 25L6 26L7
                26L7 27L8 27L8 28L7 28L7 29L8 29L8 31L9 31L9 30L10 30L10 31L11 31L11 35L12 35L12 36L13 36L13 37L11 37L11
                36L10 36L10 37L9 37L9 40L11 40L11 39L10 39L10 38L13 38L13 37L15 37L15 38L14 38L14 39L15 39L15 38L16
                38L16 37L15 37L15 36L14 36L14 35L15 35L15 34L16 34L16 33L17 33L17 36L18 36L18 37L17 37L17 38L18 38L18
                37L19 37L19 36L20 36L20 37L22 37L22 38L23 38L23 37L22 37L22 36L23 36L23 35L24 35L24 34L26 34L26 35L25
                35L25 36L30 36L30 35L31 35L31 34L32 34L32 32L33 32L33 31L34 31L34 32L35 32L35 30L33 30L33 29L32 29L32
                30L31 30L31 27L29 27L29 26L28 26L28 28L30 28L30 29L27 29L27 30L28 30L28 31L27 31L27 32L30 32L30 31L32
                31L32 32L31 32L31 34L30 34L30 33L27 33L27 34L26 34L26 33L24 33L24 32L26 32L26 29L24 29L24 30L23 30L23
                28L26 28L26 27L24 27L24 26L25 26L25 25L24 25L24 26L22 26L22 27L23 27L23 28L21 28L21 27L20 27L20 26L19
                26L19 25L23 25L23 24L24 24L24 22L25 22L25 24L27 24L27 23L26 23L26 22L27 22L27 21L28 21L28 20L27 20L27
                21L24 21L24 19L25 19L25 20L26 20L26 19L25 19L25 18L26 18L26 17L24 17L24 18L22 18L22 19L23 19L23 20L21
                20L21 19L20 19L20 18L18 18L18 17L19 17L19 16L20 16L20 17L23 17L23 16L27 16L27 15L25 15L25 14L23 14L23
                13L22 13L22 14L23 14L23 16L21 16L21 15L20 15L20 14L19 14L19 13ZM40 13L40 14L41 14L41 13ZM10 14L10 15L11
                15L11 14ZM6 15L6 16L5 16L5 17L6 17L6 18L7 18L7 17L6 17L6 16L7 16L7 15ZM12 15L12 16L13 16L13 15ZM39 15L39
                16L40 16L40 15ZM39 17L39 18L40 18L40 17ZM11 18L11 19L10 19L10 20L9 20L9 19L8 19L8 22L7 22L7 21L6 21L6
                20L7 20L7 19L5 19L5 22L4 22L4 23L3 23L3 22L2 22L2 23L3 23L3 24L5 24L5 23L6 23L6 24L7 24L7 23L9 23L9
                21L10 21L10 24L11 24L11 22L13 22L13 21L12 21L12 20L11 20L11 19L12 19L12 18ZM34 18L34 19L35 19L35 18ZM40
                19L40 20L41 20L41 19ZM3 20L3 21L4 21L4 20ZM10 20L10 21L11 21L11 20ZM29 21L29 22L30 22L30 21ZM37 21L37
                22L35 22L35 23L37 23L37 22L38 22L38 21ZM40 21L40 22L41 22L41 21ZM6 22L6 23L7 23L7 22ZM40 23L40 25L41
                25L41 23ZM0 25L0 33L1 33L1 27L2 27L2 28L3 28L3 31L2 31L2 32L3 32L3 33L4 33L4 32L3 32L3 31L5 31L5 30L4
                30L4 28L3 28L3 27L2 27L2 26L1 26L1 25ZM34 25L34 26L35 26L35 25ZM18 27L18 28L17 28L17 29L16 29L16 28L14
                28L14 29L12 29L12 30L13 30L13 31L12 31L12 33L13 33L13 31L14 31L14 33L16 33L16 32L15 32L15 31L16 31L16
                30L17 30L17 31L18 31L18 28L19 28L19 27ZM8 28L8 29L9 29L9 28ZM14 29L14 31L15 31L15 30L16 30L16 29ZM19
                29L19 30L20 30L20 31L21 31L21 32L22 32L22 33L20 33L20 32L19 32L19 34L18 34L18 36L19 36L19 34L20 34L20
                36L22 36L22 35L23 35L23 34L24 34L24 33L23 33L23 32L22 32L22 29ZM37 29L37 30L36 30L36 31L37 31L37 30L39
                30L39 29ZM24 30L24 31L25 31L25 30ZM8 32L8 33L9 33L9 35L10 35L10 33L9 33L9 32ZM17 32L17 33L18 33L18
                32ZM22 33L22 34L21 34L21 35L22 35L22 34L23 34L23 33ZM33 33L33 36L36 36L36 33ZM12 34L12 35L13 35L13
                34ZM27 34L27 35L28 35L28 34ZM34 34L34 35L35 35L35 34ZM37 36L37 37L36 37L36 38L37 38L37 40L39 40L39 37L38
                37L38 36ZM25 39L25 40L26 40L26 39ZM0 0L0 7L7 7L7 0ZM1 1L1 6L6 6L6 1ZM2 2L2 5L5 5L5 2ZM34 0L34 7L41 7L41
                0ZM35 1L35 6L40 6L40 1ZM36 2L36 5L39 5L39 2ZM0 34L0 41L7 41L7 34ZM1 35L1 40L6 40L6 35ZM2 36L2 39L5 39L5
                36Z" fill="#2d3748" />
        </g>
    </g>
</svg>